<svg width="17" height="17" viewBox="0 0 17 17" fill="none" xmlns="http://www.w3.org/2000/svg">
<path d="M3.29232 14.1481C2.92565 14.1481 2.61187 14.0177 2.35098 13.7568C2.0901 13.4959 1.95943 13.1819 1.95898 12.8148V4.81478C1.95898 4.44811 2.08965 4.13433 2.35098 3.87345C2.61232 3.61256 2.9261 3.48189 3.29232 3.48145H13.959C14.3257 3.48145 14.6397 3.61211 14.901 3.87345C15.1623 4.13478 15.2928 4.44856 15.2923 4.81478V12.8148C15.2923 13.1814 15.1619 13.4954 14.901 13.7568C14.6401 14.0181 14.3261 14.1486 13.959 14.1481H3.29232ZM8.62565 9.48145L3.29232 6.14811V12.8148H13.959V6.14811L8.62565 9.48145ZM8.62565 8.14811L13.959 4.81478H3.29232L8.62565 8.14811ZM3.29232 6.14811V4.81478V12.8148V6.14811Z" fill="url(#paint0_linear_35_1163)"/>
<defs>
<linearGradient id="paint0_linear_35_1163" x1="1.95898" y1="3.48145" x2="15.5444" y2="3.81278" gradientUnits="userSpaceOnUse">
<stop stop-color="#8EFFC7"/>
<stop offset="0.525" stop-color="#3ECDED"/>
<stop offset="1" stop-color="#1673E8"/>
</linearGradient>
</defs>
</svg>
