<svg width="17" height="17" viewBox="0 0 17 17" fill="none" xmlns="http://www.w3.org/2000/svg">
<path d="M8.62565 12.1475C8.81454 12.1475 8.97299 12.0835 9.10099 11.9555C9.22899 11.8275 9.29276 11.6692 9.29232 11.4808V8.81413C9.29232 8.62524 9.22832 8.46702 9.10032 8.33946C8.97232 8.21191 8.8141 8.1479 8.62565 8.14746C8.43721 8.14702 8.27899 8.21102 8.15099 8.33946C8.02299 8.46791 7.95899 8.62613 7.95899 8.81413V11.4808C7.95899 11.6697 8.02299 11.8281 8.15099 11.9561C8.27899 12.0841 8.43721 12.1479 8.62565 12.1475ZM8.62565 6.81413C8.81454 6.81413 8.97299 6.75013 9.10099 6.62213C9.22899 6.49413 9.29276 6.33591 9.29232 6.14746C9.29187 5.95902 9.22787 5.80079 9.10032 5.67279C8.97276 5.54479 8.81454 5.48079 8.62565 5.48079C8.43676 5.48079 8.27854 5.54479 8.15099 5.67279C8.02343 5.80079 7.95943 5.95902 7.95899 6.14746C7.95854 6.33591 8.02254 6.49435 8.15099 6.62279C8.27943 6.75124 8.43765 6.81502 8.62565 6.81413ZM8.62565 15.4808C7.70343 15.4808 6.83676 15.3057 6.02565 14.9555C5.21454 14.6052 4.50899 14.1304 3.90899 13.5308C3.30899 12.9312 2.8341 12.2257 2.48432 11.4141C2.13454 10.6026 1.95943 9.73591 1.95899 8.81413C1.95854 7.89235 2.13365 7.02568 2.48432 6.21413C2.83499 5.40257 3.30987 4.69702 3.90899 4.09746C4.5081 3.49791 5.21365 3.02302 6.02565 2.67279C6.83765 2.32257 7.70432 2.14746 8.62565 2.14746C9.54699 2.14746 10.4137 2.32257 11.2257 2.67279C12.0377 3.02302 12.7432 3.49791 13.3423 4.09746C13.9414 4.69702 14.4165 5.40257 14.7677 6.21413C15.1188 7.02568 15.2937 7.89235 15.2923 8.81413C15.291 9.73591 15.1159 10.6026 14.767 11.4141C14.4181 12.2257 13.9432 12.9312 13.3423 13.5308C12.7414 14.1304 12.0359 14.6055 11.2257 14.9561C10.4154 15.3068 9.54876 15.4817 8.62565 15.4808ZM8.62565 14.1475C10.1145 14.1475 11.3757 13.6308 12.409 12.5975C13.4423 11.5641 13.959 10.303 13.959 8.81413C13.959 7.32524 13.4423 6.06413 12.409 5.03079C11.3757 3.99746 10.1145 3.48079 8.62565 3.48079C7.13676 3.48079 5.87565 3.99746 4.84232 5.03079C3.80899 6.06413 3.29232 7.32524 3.29232 8.81413C3.29232 10.303 3.80899 11.5641 4.84232 12.5975C5.87565 13.6308 7.13676 14.1475 8.62565 14.1475Z" fill="url(#paint0_linear_35_1153)"/>
<defs>
<linearGradient id="paint0_linear_35_1153" x1="1.95898" y1="2.14746" x2="15.5473" y2="2.41259" gradientUnits="userSpaceOnUse">
<stop stop-color="#8EFFC7"/>
<stop offset="0.525" stop-color="#3ECDED"/>
<stop offset="1" stop-color="#1673E8"/>
</linearGradient>
</defs>
</svg>
