<svg width="17" height="17" viewBox="0 0 17 17" fill="none" xmlns="http://www.w3.org/2000/svg">
<path d="M4.62435 14.1481C4.25768 14.1481 3.94391 14.0177 3.68302 13.7568C3.42213 13.4959 3.29146 13.1819 3.29102 12.8148C3.29057 12.4477 3.42124 12.1339 3.68302 11.8734C3.94479 11.613 4.25857 11.4823 4.62435 11.4815C4.99013 11.4806 5.30413 11.6112 5.56635 11.8734C5.82857 12.1357 5.95902 12.4495 5.95768 12.8148C5.95635 13.1801 5.82591 13.4941 5.56635 13.7568C5.30679 14.0195 4.99279 14.1499 4.62435 14.1481ZM4.62435 10.1481C4.25768 10.1481 3.94391 10.0177 3.68302 9.75678C3.42213 9.49589 3.29146 9.18189 3.29102 8.81478C3.29057 8.44767 3.42124 8.13389 3.68302 7.87345C3.94479 7.61301 4.25857 7.48234 4.62435 7.48145C4.99013 7.48056 5.30413 7.61123 5.56635 7.87345C5.82857 8.13567 5.95902 8.44945 5.95768 8.81478C5.95635 9.18012 5.82591 9.49412 5.56635 9.75678C5.30679 10.0195 4.99279 10.1499 4.62435 10.1481ZM4.62435 6.14812C4.25768 6.14812 3.94391 6.01767 3.68302 5.75678C3.42213 5.49589 3.29146 5.18189 3.29102 4.81478C3.29057 4.44767 3.42124 4.13389 3.68302 3.87345C3.94479 3.61301 4.25857 3.48234 4.62435 3.48145C4.99013 3.48056 5.30413 3.61123 5.56635 3.87345C5.82857 4.13567 5.95902 4.44945 5.95768 4.81478C5.95635 5.18012 5.82591 5.49412 5.56635 5.75678C5.30679 6.01945 4.99279 6.14989 4.62435 6.14812ZM8.62435 6.14812C8.25768 6.14812 7.94391 6.01767 7.68302 5.75678C7.42213 5.49589 7.29146 5.18189 7.29102 4.81478C7.29057 4.44767 7.42124 4.13389 7.68302 3.87345C7.9448 3.61301 8.25857 3.48234 8.62435 3.48145C8.99013 3.48056 9.30413 3.61123 9.56635 3.87345C9.82857 4.13567 9.95902 4.44945 9.95768 4.81478C9.95635 5.18012 9.82591 5.49412 9.56635 5.75678C9.3068 6.01945 8.99279 6.14989 8.62435 6.14812ZM12.6244 6.14812C12.2577 6.14812 11.9439 6.01767 11.683 5.75678C11.4221 5.49589 11.2915 5.18189 11.291 4.81478C11.2906 4.44767 11.4212 4.13389 11.683 3.87345C11.9448 3.61301 12.2586 3.48234 12.6244 3.48145C12.9901 3.48056 13.3041 3.61123 13.5664 3.87345C13.8286 4.13567 13.959 4.44945 13.9577 4.81478C13.9564 5.18012 13.8259 5.49412 13.5664 5.75678C13.3068 6.01945 12.9928 6.14989 12.6244 6.14812ZM8.62435 10.1481C8.25768 10.1481 7.94391 10.0177 7.68302 9.75678C7.42213 9.49589 7.29146 9.18189 7.29102 8.81478C7.29057 8.44767 7.42124 8.13389 7.68302 7.87345C7.9448 7.61301 8.25857 7.48234 8.62435 7.48145C8.99013 7.48056 9.30413 7.61123 9.56635 7.87345C9.82857 8.13567 9.95902 8.44945 9.95768 8.81478C9.95635 9.18012 9.82591 9.49412 9.56635 9.75678C9.3068 10.0195 8.99279 10.1499 8.62435 10.1481ZM9.29102 13.4815V12.3815C9.29102 12.2926 9.30768 12.2066 9.34102 12.1234C9.37435 12.0403 9.42435 11.9652 9.49102 11.8981L12.9743 8.43145C13.0744 8.33145 13.1855 8.25923 13.3077 8.21478C13.4299 8.17034 13.5521 8.14812 13.6744 8.14812C13.8077 8.14812 13.9355 8.17323 14.0577 8.22345C14.1799 8.27367 14.291 8.34856 14.391 8.44812L15.0077 9.06478C15.0966 9.16478 15.1661 9.27589 15.2164 9.39812C15.2666 9.52034 15.2915 9.64256 15.291 9.76478C15.2906 9.88701 15.2684 10.0121 15.2243 10.1401C15.1804 10.2681 15.1081 10.3819 15.0077 10.4815L11.541 13.9481C11.4744 14.0148 11.3995 14.0648 11.3164 14.0981C11.2332 14.1314 11.147 14.1481 11.0577 14.1481H9.95768C9.7688 14.1481 9.61057 14.0843 9.48302 13.9568C9.35546 13.8292 9.29146 13.6708 9.29102 13.4815ZM13.6744 10.4148L14.291 9.76478L13.6744 9.14812L13.041 9.78145L13.6744 10.4148Z" fill="url(#paint0_linear_35_1156)"/>
<defs>
<linearGradient id="paint0_linear_35_1156" x1="3.29102" y1="3.48145" x2="15.5193" y2="3.74986" gradientUnits="userSpaceOnUse">
<stop stop-color="#8EFFC7"/>
<stop offset="0.525" stop-color="#3ECDED"/>
<stop offset="1" stop-color="#1673E8"/>
</linearGradient>
</defs>
</svg>
