<svg width="17" height="17" viewBox="0 0 17 17" fill="none" xmlns="http://www.w3.org/2000/svg">
<path d="M8.62565 5.14746C9.06768 5.14746 9.4916 5.32306 9.80416 5.63562C10.1167 5.94818 10.2923 6.3721 10.2923 6.81413C10.2923 7.033 10.2492 7.24972 10.1655 7.45193C10.0817 7.65414 9.95893 7.83787 9.80416 7.99264C9.6494 8.1474 9.46567 8.27017 9.26346 8.35393C9.06125 8.43768 8.84452 8.48079 8.62565 8.48079C8.18362 8.48079 7.7597 8.3052 7.44714 7.99264C7.13458 7.68008 6.95898 7.25616 6.95898 6.81413C6.95898 6.3721 7.13458 5.94818 7.44714 5.63562C7.7597 5.32306 8.18362 5.14746 8.62565 5.14746ZM8.62565 2.14746C9.86333 2.14746 11.0503 2.63913 11.9255 3.5143C12.8007 4.38947 13.2923 5.57645 13.2923 6.81413C13.2923 10.3141 8.62565 15.4808 8.62565 15.4808C8.62565 15.4808 3.95898 10.3141 3.95898 6.81413C3.95898 5.57645 4.45065 4.38947 5.32582 3.5143C6.20099 2.63913 7.38797 2.14746 8.62565 2.14746ZM8.62565 3.48079C7.7416 3.48079 6.89375 3.83198 6.26863 4.4571C5.64351 5.08223 5.29232 5.93007 5.29232 6.81413C5.29232 7.48079 5.29232 8.81413 8.62565 13.2875C11.959 8.81413 11.959 7.48079 11.959 6.81413C11.959 5.93007 11.6078 5.08223 10.9827 4.4571C10.3576 3.83198 9.50971 3.48079 8.62565 3.48079Z" fill="url(#paint0_linear_35_1149)"/>
<defs>
<linearGradient id="paint0_linear_35_1149" x1="3.95898" y1="2.14746" x2="13.4726" y2="2.2774" gradientUnits="userSpaceOnUse">
<stop stop-color="#8EFFC7"/>
<stop offset="0.525" stop-color="#3ECDED"/>
<stop offset="1" stop-color="#1673E8"/>
</linearGradient>
</defs>
</svg>
