<svg width="17" height="17" viewBox="0 0 17 17" fill="none" xmlns="http://www.w3.org/2000/svg">
<path d="M3.95898 14.8148C3.40343 14.8148 2.93121 14.6203 2.54232 14.2314C2.15343 13.8426 1.95898 13.3703 1.95898 12.8148V8.14811C1.95898 7.59256 2.15343 7.12033 2.54232 6.73145C2.93121 6.34256 3.40343 6.14811 3.95898 6.14811C4.25898 6.14811 4.5341 6.20922 4.78432 6.33144C5.03454 6.45367 5.25387 6.61478 5.44232 6.81478H5.95898V3.48145H12.6257V6.81478H13.2923C13.8479 6.81478 14.3201 7.00922 14.709 7.39811C15.0979 7.787 15.2923 8.25922 15.2923 8.81478V14.1481H5.44232C5.25343 14.3481 5.0341 14.5092 4.78432 14.6314C4.53454 14.7537 4.25943 14.8148 3.95898 14.8148ZM3.95898 13.4814C4.14787 13.4814 4.30632 13.4174 4.43432 13.2894C4.56232 13.1614 4.6261 13.0032 4.62565 12.8148V8.14811C4.62565 7.95922 4.56165 7.801 4.43365 7.67345C4.30565 7.54589 4.14743 7.48189 3.95898 7.48145C3.77054 7.481 3.61232 7.545 3.48432 7.67345C3.35632 7.80189 3.29232 7.96011 3.29232 8.14811V12.8148C3.29232 13.0037 3.35632 13.1621 3.48432 13.2901C3.61232 13.4181 3.77054 13.4819 3.95898 13.4814ZM7.29232 6.81478H11.2923V4.81478H7.29232V6.81478ZM5.95898 12.8148H13.959V8.81478C13.959 8.62589 13.895 8.46767 13.767 8.34011C13.639 8.21256 13.4808 8.14856 13.2923 8.14811H5.95898V12.8148ZM10.6257 10.1481C10.8145 10.1481 10.973 10.0841 11.101 9.95611C11.229 9.82811 11.2928 9.66989 11.2923 9.48144C11.2919 9.293 11.2279 9.13478 11.1003 9.00678C10.9728 8.87878 10.8145 8.81478 10.6257 8.81478C10.4368 8.81478 10.2785 8.87878 10.151 9.00678C10.0234 9.13478 9.95943 9.293 9.95898 9.48144C9.95854 9.66989 10.0225 9.82833 10.151 9.95678C10.2794 10.0852 10.4377 10.149 10.6257 10.1481ZM12.6257 10.1481C12.8145 10.1481 12.973 10.0841 13.101 9.95611C13.229 9.82811 13.2928 9.66989 13.2923 9.48144C13.2919 9.293 13.2279 9.13478 13.1003 9.00678C12.9728 8.87878 12.8145 8.81478 12.6257 8.81478C12.4368 8.81478 12.2785 8.87878 12.151 9.00678C12.0234 9.13478 11.9594 9.293 11.959 9.48144C11.9585 9.66989 12.0225 9.82833 12.151 9.95678C12.2794 10.0852 12.4377 10.149 12.6257 10.1481ZM10.6257 12.1481C10.8145 12.1481 10.973 12.0841 11.101 11.9561C11.229 11.8281 11.2928 11.6699 11.2923 11.4814C11.2919 11.293 11.2279 11.1348 11.1003 11.0068C10.9728 10.8788 10.8145 10.8148 10.6257 10.8148C10.4368 10.8148 10.2785 10.8788 10.151 11.0068C10.0234 11.1348 9.95943 11.293 9.95898 11.4814C9.95854 11.6699 10.0225 11.8283 10.151 11.9568C10.2794 12.0852 10.4377 12.149 10.6257 12.1481ZM12.6257 12.1481C12.8145 12.1481 12.973 12.0841 13.101 11.9561C13.229 11.8281 13.2928 11.6699 13.2923 11.4814C13.2919 11.293 13.2279 11.1348 13.1003 11.0068C12.9728 10.8788 12.8145 10.8148 12.6257 10.8148C12.4368 10.8148 12.2785 10.8788 12.151 11.0068C12.0234 11.1348 11.9594 11.293 11.959 11.4814C11.9585 11.6699 12.0225 11.8283 12.151 11.9568C12.2794 12.0852 12.4377 12.149 12.6257 12.1481ZM6.62565 12.1481H9.29232V8.81478H6.62565V12.1481Z" fill="url(#paint0_linear_35_1171)"/>
<defs>
<linearGradient id="paint0_linear_35_1171" x1="1.95898" y1="3.48145" x2="15.5453" y2="3.79331" gradientUnits="userSpaceOnUse">
<stop stop-color="#8EFFC7"/>
<stop offset="0.525" stop-color="#3ECDED"/>
<stop offset="1" stop-color="#1673E8"/>
</linearGradient>
</defs>
</svg>
