<svg width="17" height="17" viewBox="0 0 17 17" fill="none" xmlns="http://www.w3.org/2000/svg">
<path d="M12.6257 10.8145H11.2923V12.1478H12.6257M12.6257 8.14779H11.2923V9.48112H12.6257M13.959 13.4811H8.62565V12.1478H9.95898V10.8145H8.62565V9.48112H9.95898V8.14779H8.62565V6.81445H13.959M7.29232 5.48112H5.95898V4.14779H7.29232M7.29232 8.14779H5.95898V6.81445H7.29232M7.29232 10.8145H5.95898V9.48112H7.29232M7.29232 13.4811H5.95898V12.1478H7.29232M4.62565 5.48112H3.29232V4.14779H4.62565M4.62565 8.14779H3.29232V6.81445H4.62565M4.62565 10.8145H3.29232V9.48112H4.62565M4.62565 13.4811H3.29232V12.1478H4.62565M8.62565 5.48112V2.81445H1.95898V14.8145H15.2923V5.48112H8.62565Z" fill="url(#paint0_linear_35_1139)"/>
<defs>
<linearGradient id="paint0_linear_35_1139" x1="1.95898" y1="2.81445" x2="15.5461" y2="3.10901" gradientUnits="userSpaceOnUse">
<stop stop-color="#8EFFC7"/>
<stop offset="0.525" stop-color="#3ECDED"/>
<stop offset="1" stop-color="#1673E8"/>
</linearGradient>
</defs>
</svg>
