<svg width="148" height="25" viewBox="0 0 148 25" fill="none" xmlns="http://www.w3.org/2000/svg">
<path d="M4.35403 21.3241C4.31102 21.651 4.13038 21.8145 3.8121 21.8145H2.48306C2.31102 21.8145 2.18199 21.7671 2.09597 21.6725C2.01855 21.5779 1.98844 21.4446 2.00565 21.2725L3.97984 4.17574C4.02285 3.84886 4.20349 3.68542 4.52177 3.68542H6.26371C6.55618 3.68542 6.74973 3.82306 6.84435 4.09832L12.1734 18.4983L17.4895 4.09832C17.5927 3.82306 17.7906 3.68542 18.0831 3.68542H19.8121C19.9755 3.68542 20.1046 3.72843 20.1992 3.81445C20.2938 3.90047 20.3497 4.0209 20.3669 4.17574L22.3282 21.2725C22.3454 21.4446 22.311 21.5779 22.225 21.6725C22.1476 21.7671 22.0229 21.8145 21.8508 21.8145H20.5218C20.2035 21.8145 20.0228 21.651 19.9798 21.3241L18.5347 7.38865L13.3218 21.4015C13.2185 21.6768 13.0207 21.8145 12.7282 21.8145H11.6185C11.3261 21.8145 11.1325 21.6768 11.0379 21.4015L5.8379 7.38865L4.35403 21.3241ZM32.7208 22.1048C31.5595 22.1048 30.4771 21.8109 29.4735 21.2231C28.4771 20.6281 27.6814 19.8216 27.0864 18.8037C26.4914 17.7786 26.1939 16.6603 26.1939 15.4489C26.1939 14.2231 26.4914 13.0976 27.0864 12.0725C27.6814 11.0474 28.4807 10.2374 29.4843 9.64241C30.4879 9.04026 31.5739 8.73918 32.7423 8.73918C33.9036 8.73918 34.9861 9.04026 35.9896 9.64241C36.9932 10.2374 37.7925 11.0474 38.3875 12.0725C38.9825 13.0976 39.28 14.2231 39.28 15.4489C39.28 16.6603 38.9789 17.7786 38.3767 18.8037C37.7818 19.8216 36.9789 20.6281 35.9681 21.2231C34.9646 21.8109 33.8821 22.1048 32.7208 22.1048ZM32.7531 20.3306C33.5775 20.3306 34.3481 20.1155 35.0649 19.6854C35.7818 19.2553 36.3552 18.6675 36.7853 17.922C37.2155 17.1693 37.4305 16.3413 37.4305 15.4381C37.4305 14.5349 37.2155 13.7069 36.7853 12.9542C36.3552 12.1944 35.7818 11.5994 35.0649 11.1693C34.3481 10.732 33.5775 10.5134 32.7531 10.5134C31.9215 10.5134 31.1438 10.732 30.4198 11.1693C29.6957 11.5994 29.1187 12.1944 28.6886 12.9542C28.2585 13.7069 28.0434 14.5349 28.0434 15.4381C28.0434 16.3413 28.2585 17.1693 28.6886 17.922C29.1187 18.6675 29.6957 19.2553 30.4198 19.6854C31.1438 20.1155 31.9215 20.3306 32.7531 20.3306ZM53.0644 5.43811C53.0644 5.15137 53.2077 5.008 53.4945 5.008H54.473C54.7597 5.008 54.9031 5.15137 54.9031 5.43811V21.3843C54.9031 21.6711 54.7597 21.8145 54.473 21.8145H53.559C53.4156 21.8145 53.3045 21.7786 53.2256 21.7069C53.154 21.6352 53.1181 21.5313 53.1181 21.3951L53.0966 19.6639C52.602 20.4094 51.9819 20.9972 51.2364 21.4274C50.4909 21.8575 49.6378 22.0725 48.6773 22.0725C47.516 22.0725 46.4694 21.7786 45.5375 21.1908C44.6056 20.603 43.878 19.8001 43.3547 18.7822C42.8314 17.7643 42.5697 16.6388 42.5697 15.4059C42.5697 14.18 42.8314 13.0582 43.3547 12.0403C43.8851 11.0223 44.6163 10.2195 45.5482 9.63166C46.4801 9.03667 47.5231 8.73918 48.6773 8.73918C49.6235 8.73918 50.4694 8.94348 51.2149 9.35209C51.9676 9.75352 52.5841 10.2983 53.0644 10.9865V5.43811ZM48.6988 20.2983C49.559 20.2983 50.326 20.0869 50.9998 19.6639C51.6808 19.241 52.2113 18.6603 52.5912 17.922C52.9712 17.1836 53.1611 16.3557 53.1611 15.4381C53.1611 14.5205 52.9712 13.6854 52.5912 12.9327C52.2113 12.18 51.6808 11.5886 50.9998 11.1585C50.326 10.7284 49.5626 10.5134 48.7095 10.5134C47.8708 10.5134 47.1253 10.7284 46.473 11.1585C45.8206 11.5886 45.3152 12.18 44.9568 12.9327C44.5984 13.6783 44.4192 14.5134 44.4192 15.4381C44.4192 16.3557 44.5984 17.1836 44.9568 17.922C45.3152 18.6603 45.817 19.241 46.4622 19.6639C47.1145 20.0869 47.8601 20.2983 48.6988 20.2983ZM65.3657 22.1048C64.2188 22.1048 63.1614 21.8073 62.1937 21.2123C61.226 20.6173 60.4589 19.8109 59.8926 18.7929C59.3263 17.775 59.0432 16.6603 59.0432 15.4489C59.0432 14.2302 59.3048 13.1084 59.8281 12.0833C60.3586 11.051 61.079 10.2374 61.9894 9.64241C62.8998 9.04026 63.9034 8.73918 65.0002 8.73918C66.1758 8.73918 67.208 9.02951 68.0969 9.61015C68.993 10.1908 69.6812 10.9901 70.1614 12.008C70.6489 13.0259 70.8926 14.1657 70.8926 15.4274V15.879C70.8855 15.9793 70.8425 16.0582 70.7636 16.1155C70.6919 16.1657 70.588 16.1908 70.4518 16.1908H60.8926C60.993 17.0223 61.2582 17.7535 61.6883 18.3843C62.1256 19.008 62.6704 19.4883 63.3227 19.8252C63.9822 20.1621 64.6883 20.3306 65.441 20.3306C66.6668 20.3306 67.7779 19.922 68.7744 19.1048C68.8747 19.0188 68.9715 18.9757 69.0647 18.9757C69.1865 18.9757 69.2905 19.0403 69.3765 19.1693L69.8819 19.9112C69.9536 20.0188 69.9894 20.1119 69.9894 20.1908C69.9894 20.3127 69.9321 20.4202 69.8174 20.5134C69.208 21.0223 68.527 21.4166 67.7744 21.6962C67.0288 21.9686 66.226 22.1048 65.3657 22.1048ZM69.0324 14.4704C68.9321 13.6603 68.7027 12.9578 68.3442 12.3628C67.993 11.7679 67.5342 11.3127 66.9679 10.9972C66.4016 10.6747 65.76 10.5134 65.0432 10.5134C64.3622 10.5134 63.7278 10.6783 63.1399 11.008C62.5521 11.3306 62.0611 11.7929 61.6668 12.3951C61.2726 12.9901 61.0181 13.6818 60.9034 14.4704H69.0324ZM76.8679 21.3843C76.8679 21.6711 76.7245 21.8145 76.4378 21.8145H75.4593C75.1725 21.8145 75.0292 21.6711 75.0292 21.3843V5.43811C75.0292 5.15137 75.1725 5.008 75.4593 5.008H76.4378C76.7245 5.008 76.8679 5.15137 76.8679 5.43811V21.3843ZM103.454 21.2983C103.454 21.6424 103.282 21.8145 102.938 21.8145H90.0349C89.6908 21.8145 89.5187 21.6424 89.5187 21.2983V20.408C89.5187 20.1585 89.5919 19.9435 89.7381 19.7628L100.319 5.81445H90.2155C89.8714 5.81445 89.6994 5.64241 89.6994 5.29832V4.20155C89.6994 3.85746 89.8714 3.68542 90.2155 3.68542H102.886C103.231 3.68542 103.403 3.85746 103.403 4.20155V4.98865C103.403 5.2209 103.329 5.43596 103.183 5.63381L92.5381 19.6854H102.938C103.282 19.6854 103.454 19.8575 103.454 20.2015V21.2983ZM113.513 22.1048C112.366 22.1048 111.309 21.8073 110.341 21.2123C109.373 20.6173 108.606 19.8109 108.04 18.7929C107.474 17.775 107.19 16.6603 107.19 15.4489C107.19 14.2302 107.452 13.1084 107.975 12.0833C108.506 11.051 109.226 10.2374 110.137 9.64241C111.047 9.04026 112.051 8.73918 113.147 8.73918C114.323 8.73918 115.355 9.02951 116.244 9.61015C117.14 10.1908 117.828 10.9901 118.309 12.008C118.796 13.0259 119.04 14.1657 119.04 15.4274V15.879C119.033 15.9793 118.99 16.0582 118.911 16.1155C118.839 16.1657 118.735 16.1908 118.599 16.1908H109.04C109.14 17.0223 109.405 17.7535 109.836 18.3843C110.273 19.008 110.818 19.4883 111.47 19.8252C112.129 20.1621 112.836 20.3306 113.588 20.3306C114.814 20.3306 115.925 19.922 116.922 19.1048C117.022 19.0188 117.119 18.9757 117.212 18.9757C117.334 18.9757 117.438 19.0403 117.524 19.1693L118.029 19.9112C118.101 20.0188 118.137 20.1119 118.137 20.1908C118.137 20.3127 118.079 20.4202 117.965 20.5134C117.355 21.0223 116.674 21.4166 115.922 21.6962C115.176 21.9686 114.373 22.1048 113.513 22.1048ZM117.18 14.4704C117.079 13.6603 116.85 12.9578 116.491 12.3628C116.14 11.7679 115.681 11.3127 115.115 10.9972C114.549 10.6747 113.907 10.5134 113.19 10.5134C112.509 10.5134 111.875 10.6783 111.287 11.008C110.699 11.3306 110.208 11.7929 109.814 12.3951C109.42 12.9901 109.165 13.6818 109.051 14.4704H117.18ZM128.467 8.73918C129.234 8.73918 130.044 8.96857 130.897 9.42736C131.054 9.52055 131.133 9.63883 131.133 9.78219C131.133 9.86105 131.112 9.9399 131.069 10.0188L130.649 10.8467C130.563 11.0044 130.452 11.0833 130.316 11.0833C130.237 11.0833 130.151 11.0582 130.058 11.008C129.427 10.6783 128.825 10.5134 128.252 10.5134C127.7 10.5134 127.173 10.7069 126.671 11.094C126.176 11.474 125.775 12.008 125.467 12.6962C125.166 13.3772 125.015 14.1442 125.015 14.9972V21.3843C125.015 21.6711 124.872 21.8145 124.585 21.8145H123.606C123.32 21.8145 123.176 21.6711 123.176 21.3843V9.3951C123.176 9.10836 123.32 8.96499 123.606 8.96499H124.445C124.732 8.96499 124.879 9.10478 124.886 9.38435L124.929 10.7499C125.373 10.1119 125.868 9.61732 126.413 9.26607C126.965 8.91481 127.649 8.73918 128.467 8.73918ZM139.242 22.1048C138.081 22.1048 136.999 21.8109 135.995 21.2231C134.999 20.6281 134.203 19.8216 133.608 18.8037C133.013 17.7786 132.715 16.6603 132.715 15.4489C132.715 14.2231 133.013 13.0976 133.608 12.0725C134.203 11.0474 135.002 10.2374 136.006 9.64241C137.009 9.04026 138.095 8.73918 139.264 8.73918C140.425 8.73918 141.507 9.04026 142.511 9.64241C143.515 10.2374 144.314 11.0474 144.909 12.0725C145.504 13.0976 145.801 14.2231 145.801 15.4489C145.801 16.6603 145.5 17.7786 144.898 18.8037C144.303 19.8216 143.5 20.6281 142.49 21.2231C141.486 21.8109 140.404 22.1048 139.242 22.1048ZM139.274 20.3306C140.099 20.3306 140.869 20.1155 141.586 19.6854C142.303 19.2553 142.877 18.6675 143.307 17.922C143.737 17.1693 143.952 16.3413 143.952 15.4381C143.952 14.5349 143.737 13.7069 143.307 12.9542C142.877 12.1944 142.303 11.5994 141.586 11.1693C140.869 10.732 140.099 10.5134 139.274 10.5134C138.443 10.5134 137.665 10.732 136.941 11.1693C136.217 11.5994 135.64 12.1944 135.21 12.9542C134.78 13.7069 134.565 14.5349 134.565 15.4381C134.565 16.3413 134.78 17.1693 135.21 17.922C135.64 18.6675 136.217 19.2553 136.941 19.6854C137.665 20.1155 138.443 20.3306 139.274 20.3306Z" fill="white"/>
</svg>
